<?xml version="1.0" encoding="utf-8"?>
<!-- Generator: Adobe Illustrator 16.0.0, SVG Export Plug-In . SVG Version: 6.00 Build 0)  -->
<!DOCTYPE svg PUBLIC "-//W3C//DTD SVG 1.1//EN" "http://www.w3.org/Graphics/SVG/1.1/DTD/svg11.dtd">
<svg version="1.1" id="Layer_1" xmlns="http://www.w3.org/2000/svg" xmlns:xlink="http://www.w3.org/1999/xlink" x="0px" y="0px"
	 width="69.443px" height="69.447px" viewBox="0 0 69.443 69.447" enable-background="new 0 0 69.443 69.447" xml:space="preserve">
<path fill="#026D69" d="M34.722,69.328c-19.081,0-34.604-15.522-34.604-34.604c0-19.081,15.523-34.604,34.604-34.604
	c19.079,0,34.604,15.523,34.604,34.604C69.326,53.806,53.802,69.328,34.722,69.328z M34.722,1.12
	c-18.53,0-33.604,15.075-33.604,33.604c0,18.53,15.075,33.604,33.604,33.604c18.528,0,33.604-15.074,33.604-33.604
	C68.326,16.195,53.252,1.12,34.722,1.12z"/>
<g>
	<g>
		<path fill="#026D69" d="M14.221,42.755c3.447-3.291,7.1-5.801,12.146-4.792c-1.503,1.112-2.977,2.204-4.445,3.291
			c2.328,3.335,6.417,5.19,10.115,3.12C26.203,49.716,19.984,48.657,14.221,42.755z"/>
		<path fill="#026D69" d="M47.447,41.292c-1.438-1.088-2.887-2.186-4.254-3.219c3.584-1.477,8.625,1.16,11.84,4.621
			c-3.793,5.842-12.387,6.762-17.529,1.881C41.952,45.729,45.115,44.743,47.447,41.292z"/>
		<path fill="#026D69" d="M34.814,20.703c-2.731,2.313-4.684,4.925-5.841,8.153c-0.833-0.103-1.081-0.517-0.991-1.352
			c0.395-3.649,2.124-6.669,4.371-9.447c0.688-0.854,1.462-1.641,2.188-2.45c3.421,2.272,6.65,8.272,6.898,12.798
			c-0.273,0.15-0.574,0.316-0.83,0.456c-0.838-1.463-1.561-2.975-2.512-4.319C37.14,23.194,35.948,22.012,34.814,20.703z"/>
		<path fill="#026D69" d="M53.669,23.337c0.006,4.791-0.672,9.26-3.633,13.091c-0.313,0.405-0.592,1.188-1.459,0.582
			c1.484-3.07,1.961-6.319,1.699-9.772c-2.627-0.261-5.143,0.026-7.609,0.766c-0.387-2.399-0.383-2.39,1.83-3.236
			C47.402,23.656,50.423,23.321,53.669,23.337z"/>
		<path fill="#026D69" d="M26.786,27.721c-2.345-0.192-4.601-0.371-6.854-0.567c-0.71-0.062-0.917,0.262-0.929,0.931
			c-0.045,3.066,0.394,6.03,1.762,8.838c-0.488,0.615-0.817,0.234-1.161-0.165c-2.093-2.431-3.1-5.333-3.561-8.436
			c-0.236-1.607-0.291-3.243-0.436-4.98c3.911-0.043,7.533,0.446,10.907,2.17c0.228,0.117,0.408,0.535,0.42,0.819
			C26.955,26.855,26.829,27.385,26.786,27.721z"/>
		<path fill="#026D69" d="M31.061,33.247c-1.56-0.575-1.597-0.582-1.332-2.33c0.521-3.469,2.502-6.109,4.878-8.521
			c3.148,2.508,5.3,6.857,5.115,10.338c-0.506,0.189-1.025,0.385-1.406,0.528c-1.152-1.537-2.27-3.022-3.619-4.825
			C33.368,30.196,32.252,31.672,31.061,33.247z"/>
		<path fill="#026D69" d="M7.943,42.263c2.497-2.529,5.257-4.645,8.632-5.916c0.849-0.32,1.29-0.229,1.672,0.563
			c0.149,0.313,0.436,0.557,0.548,0.697c-2.064,1.637-4.11,3.256-6.268,4.961c2.789,3.217,5.839,5.447,9.783,6.32
			C17.529,49.919,11.299,46.178,7.943,42.263z"/>
		<path fill="#026D69" d="M51.808,36.042c3.846,1.164,6.893,3.43,9.691,6.32c-4.055,3.91-8.354,7.072-14.371,6.594
			c3.887-0.961,6.932-3.191,9.734-6.357c-2.119-1.688-4.162-3.313-6.275-4.998C50.89,37.218,51.316,36.673,51.808,36.042z"/>
		<path fill="#026D69" d="M43.532,36.663c0.096-1.416,0.184-2.742,0.277-4.156c-1.057,0-1.898,0-2.852,0
			c-0.061-0.758-0.125-1.518-0.199-2.408c2.551-1.453,5.393-1.77,8.393-1.847c0.084,2.855-0.344,5.488-1.521,7.97
			c-0.104,0.227-0.521,0.41-0.801,0.422C45.736,36.692,44.64,36.663,43.532,36.663z"/>
		<path fill="#026D69" d="M28.377,32.513c-0.933,0-1.771,0-2.793,0c0.087,1.416,0.168,2.744,0.247,4.04
			c-1.124,0.052-2.31,0.13-3.497,0.138c-0.193,0.002-0.478-0.252-0.579-0.459c-1.211-2.478-1.582-5.119-1.525-7.942
			c2.82-0.022,5.494,0.356,7.983,1.606c0.194,0.098,0.345,0.482,0.342,0.732C28.552,31.221,28.45,31.816,28.377,32.513z"/>
		<path fill="#026D69" d="M34.7,44.282c0.782,3.363,2.26,6.404,5.004,8.727c-2.051,1.125-7.666,1.031-10.071,0.186
			c1.013-1.352,2.188-2.646,3.03-4.129C33.511,47.575,34.029,45.899,34.7,44.282z"/>
		<path fill="#026D69" d="M35.511,41.54c3.408-3.438,6.969-3.443,10.242-0.077C43.23,44.915,39.099,44.967,35.511,41.54z"/>
		<path fill="#026D69" d="M23.562,41.476c3.174-3.193,6.854-3.597,10.227,0.051C30.892,44.946,26.748,44.944,23.562,41.476z"/>
		<path fill="#026D69" d="M34.716,40.642c-3.479-3.039-3.473-6.9-0.041-10.203C38.077,33.325,38.111,37.438,34.716,40.642z"/>
		<path fill="#026D69" d="M27.448,37.575c-0.235-1.108-0.521-2.461-0.882-4.164c1.505,0.326,2.7,0.551,3.872,0.867
			c0.218,0.059,0.438,0.467,0.481,0.741c0.177,1.069,0.278,2.149,0.4,3.175C30.285,38.03,29.064,37.833,27.448,37.575z"/>
		<path fill="#026D69" d="M42.786,33.385c-0.35,1.724-0.625,3.081-0.852,4.198c-1.533,0.238-2.771,0.434-3.863,0.604
			c0.107-1.041,0.211-2.211,0.365-3.375c0.023-0.193,0.238-0.471,0.418-0.518C40.036,33.989,41.234,33.737,42.786,33.385z"/>
	</g>
</g>
</svg>
