<?xml version="1.0" encoding="utf-8"?>
<!-- Generator: Adobe Illustrator 16.0.0, SVG Export Plug-In . SVG Version: 6.00 Build 0)  -->
<!DOCTYPE svg PUBLIC "-//W3C//DTD SVG 1.1//EN" "http://www.w3.org/Graphics/SVG/1.1/DTD/svg11.dtd">
<svg version="1.1" id="Layer_1" xmlns="http://www.w3.org/2000/svg" xmlns:xlink="http://www.w3.org/1999/xlink" x="0px" y="0px"
	 width="69.443px" height="69.447px" viewBox="0 0 69.443 69.447" enable-background="new 0 0 69.443 69.447" xml:space="preserve">
<path fill="#026D69" d="M34.722,69.327c-19.081,0-34.604-15.521-34.604-34.604c0-19.081,15.523-34.604,34.604-34.604
	c19.078,0,34.603,15.523,34.603,34.604C69.325,53.806,53.802,69.327,34.722,69.327z M34.722,1.12
	c-18.53,0-33.604,15.075-33.604,33.604s15.075,33.604,33.604,33.604c18.527,0,33.603-15.074,33.603-33.604S53.251,1.12,34.722,1.12z
	"/>
<g>
	<path fill-rule="evenodd" clip-rule="evenodd" fill="#026D69" d="M36.266,59.712c-0.812-0.067-1.625-0.135-2.438-0.203
		c-0.005,0.028-0.012,0.055-0.017,0.076c0.351,0.119,0.71,0.209,1.046,0.361c0.327,0.146,0.66,0.32,0.944,0.552
		c0.565,0.46,1.107,0.964,1.647,1.461c0.218,0.201,0.404,0.449,0.243,0.803c-0.13,0.286-0.51,0.447-0.841,0.26
		c-0.468-0.268-0.911-0.601-1.343-0.938c-0.432-0.341-0.836-0.722-1.255-1.082c-0.791-0.681-1.585-1.353-2.371-2.042
		c-0.097-0.085-0.142-0.245-0.234-0.413c0.715-0.157,0.962,0.707,1.507,0.733c-0.461-0.497-0.937-1.013-1.399-1.514
		c-0.074,0.222-0.166,0.501-0.303,0.917c0.146,0.176,0.341,0.471,0.589,0.691c0.647,0.581,1.324,1.119,1.976,1.692
		c0.501,0.442,0.997,0.896,1.471,1.372c0.587,0.588,0.495,1.203-0.25,1.476c-0.529,0.193-1.095,0.28-1.648,0.377
		c-0.79,0.137-1.446,0.516-1.943,1.234c-0.682,0.981-1.575,1.506-2.691,1.504c-0.213-0.002-0.425-0.076-0.713-0.131
		c0.373-0.308,0.673-0.555,1.04-0.857c-0.268-0.038-0.434-0.062-0.647-0.091c0.074-0.911,0.145-1.809,0.222-2.708
		c0.021-0.236,0.086-0.471,0.099-0.706c0.029-0.644,0.33-1.038,0.855-1.237c0.177-0.068,0.361-0.119,0.568-0.187
		c-0.165-0.381-0.411-0.59-0.769-0.691c-0.233-0.066-0.476-0.195-0.657-0.373c-0.185-0.181-0.328-0.208-0.537-0.095
		c-0.514,0.271-0.551,0.234-0.75-0.354c-0.085-0.249-0.25-0.465-0.371-0.681c0.19-0.167,0.368-0.384,0.587-0.498
		c0.166-0.085,0.397-0.085,0.578-0.029c0.388,0.111,0.73,0.19,1.04-0.226c0.099-0.133,0.325-0.15,0.496-0.211
		c0.32-0.115,0.376-0.232,0.269-0.579c-0.124-0.399-0.092-0.459,0.28-0.468c0.223-0.01,0.446,0,0.668,0.011
		c0.318,0.012,0.619,0.021,0.921-0.178c0.175-0.115,0.433-0.08,0.652-0.107c0.254-0.032,0.517-0.019,0.759-0.095
		c0.386-0.126,0.663,0.017,0.893,0.346c0.375,0.535,0.919,0.487,1.483,0.603c-0.056-0.161-0.082-0.248-0.116-0.332
		c-0.084-0.213-0.087-0.389,0.127-0.514c0.049-0.029,0.113-0.139,0.098-0.177c-0.021-0.062-0.11-0.135-0.162-0.129
		c-0.467,0.065-0.789-0.304-1.163-0.494c-0.13-0.068-0.228-0.307-0.266-0.486c-0.043-0.202-0.02-0.429,0.008-0.639
		c0.031-0.223,0.008-0.384-0.17-0.524c-0.068-0.055-0.111-0.252-0.076-0.339c0.033-0.082,0.198-0.164,0.28-0.142
		c0.289,0.09,0.474-0.006,0.653-0.271c0.066-0.097,0.287-0.137,0.408-0.097c0.41,0.139,0.803,0.344,1.213,0.481
		c0.165,0.057,0.356,0.012,0.585,0.012c-0.183-0.273-0.135-0.489,0.016-0.724c0.056-0.084-0.002-0.26-0.014-0.492
		c0.289,0,0.592-0.012,0.892,0.004c0.298,0.015,0.549-0.044,0.803-0.258c0.17-0.141,0.433-0.212,0.651-0.2
		c0.396,0.02,0.729-0.088,1.033-0.362c0.141-0.127,0.29-0.245,0.44-0.356c0.309-0.234,0.635-0.282,0.951-0.033
		c0.25,0.196,0.426,0.109,0.599-0.125c0.355-0.482,0.447-1.392,0.151-1.919c-0.252-0.447-0.208-0.856,0.03-1.274
		c0.144-0.248,0.306-0.49,0.431-0.75c0.307-0.633,0.146-1.437-0.318-1.931c-0.155-0.165-0.229-0.43-0.336-0.649
		c-0.059-0.118-0.088-0.27-0.171-0.354c-0.248-0.256-0.278-0.519-0.139-0.863c0.196-0.494,0.41-0.951,0.76-1.348
		c0.177-0.199,0.209-0.572,0.281-0.877c0.073-0.294,0.114-0.598,0.168-0.898c0.03,0.002,0.06,0.006,0.089,0.008
		c-0.021-0.024-0.045-0.044-0.067-0.066c-0.132-0.134-0.264-0.271-0.396-0.408c0.156-0.08,0.313-0.158,0.469-0.237
		c0.02-0.012,0.047-0.005,0.062-0.021c0.227-0.244,0.258-0.657,0.563-0.84c0.009-0.007-0.003-0.076-0.022-0.102
		c-0.277-0.335-0.493-0.737-0.92-0.899c-0.218-0.082-0.431-0.234-0.601-0.413c-0.291-0.307-0.544-0.658-0.829-1.011
		c0.146-0.044,0.326-0.093,0.5-0.155c0.191-0.068,0.396-0.116,0.566-0.228c0.305-0.202,0.284-0.575-0.04-0.729
		c-0.253-0.119-0.521-0.21-0.787-0.278c-0.238-0.061-0.381-0.202-0.501-0.44c-0.072-0.143-0.239-0.312-0.37-0.32
		c-0.48-0.03-0.699-0.335-0.804-0.81c-0.02-0.089-0.06-0.174-0.113-0.325c-0.091,0.115-0.176,0.183-0.217,0.274
		c-0.098,0.23-0.271,0.296-0.445,0.208c-0.119-0.06-0.202-0.226-0.282-0.358c-0.063-0.105-0.068-0.269-0.146-0.344
		c-0.378-0.357-0.426-0.801-0.327-1.3c0.008-0.035,0.01-0.07,0.009-0.107c-0.001-0.021-0.014-0.043-0.034-0.103
		c-0.605,0.08-0.892-0.33-1.037-0.934c-0.049-0.203-0.165-0.274-0.356-0.331c-0.236-0.068-0.455-0.246-0.658-0.414
		c-0.561-0.468-1.11-0.949-1.658-1.439c-0.316-0.284-0.527-0.638-0.533-1.128c-0.003-0.145-0.112-0.305-0.204-0.429
		c-0.123-0.165-0.276-0.302-0.482-0.521c-0.44,0.091-0.871-0.222-1.267-0.589c-0.473-0.439-0.51-0.951-0.122-1.476
		c-0.391-0.251-0.773-0.47-1.238-0.51c-0.249-0.02-0.504-0.147-0.733-0.276c-0.378-0.21-0.729-0.485-1.11-0.69
		c-0.473-0.256-0.909-0.547-1.283-0.974c-0.173-0.197-0.448-0.292-0.688-0.4c-0.186-0.083-0.398-0.089-0.582-0.178
		c-0.11-0.054-0.256-0.2-0.256-0.303c0-0.109,0.14-0.25,0.25-0.319c0.153-0.098,0.333-0.147,0.505-0.209
		c0.222-0.08,0.279-0.218,0.16-0.456c-0.086-0.172-0.146-0.36-0.236-0.59c0.251,0,0.454-0.032,0.646,0.005
		c0.624,0.122,1.244,0.268,1.864,0.406c0.021,0.005,0.039,0.021,0.061,0.024c0.224,0.034,1.077-0.57,1.118-0.819
		c0.056-0.342,0.238-0.509,0.518-0.599c0.202-0.065,0.43-0.124,0.396-0.457c-0.034-0.322-0.229-0.441-0.485-0.46
		c-0.385-0.03-0.688-0.211-0.917-0.562c-0.187-0.287-0.45-0.419-0.761-0.461c-0.225-0.031-0.446-0.095-0.693-0.151
		c0.176-0.373,0.433-0.389,0.702-0.425c0.156-0.021,0.302-0.134,0.453-0.205c-0.087-0.176-0.135-0.416-0.266-0.517
		c-0.505-0.387-1.027-0.748-1.563-1.081c-0.318-0.199-0.635-0.144-0.949,0.119c-0.187,0.155-0.447,0.206-0.678,0.282
		c-0.44,0.145-0.495,0.249-0.337,0.751c-0.235,0.133-0.458,0.067-0.65-0.087c-0.503-0.403-1.043-0.675-1.672-0.712
		c-0.162-0.011-0.353-0.079-0.469-0.196c-0.403-0.411-0.78-0.855-1.167-1.288c-0.029-0.033-0.053-0.075-0.083-0.109
		c-0.108-0.123-0.273-0.228-0.308-0.373c-0.022-0.087,0.181-0.224,0.235-0.363c0.04-0.103,0.036-0.269-0.013-0.364
		c-0.054-0.103-0.182-0.157-0.277-0.231c0.015-0.039,0.032-0.078,0.048-0.118c0.121-0.049,0.255-0.075,0.36-0.152
		c0.14-0.104,0.287-0.226,0.376-0.381c0.133-0.229,0.046-0.386-0.187-0.486c-0.158-0.067-0.294-0.206-0.368-0.261
		c-0.147,0.116-0.292,0.249-0.452,0.35c-0.261,0.165-0.487,0.093-0.548-0.229c-0.098-0.52-0.388-0.815-0.77-1.067
		c-0.405-0.268-0.682-0.677-0.858-1.167c-0.027-0.075-0.079-0.181-0.055-0.232c0.177-0.364,0.333-0.755,0.575-1.058
		c0.118-0.148,0.407-0.164,0.619-0.17c0.37-0.011,0.744,0.002,1.109,0.062c0.382,0.063,0.655,0.303,0.757,0.762
		c0.025,0.113,0.163,0.21,0.266,0.281c0.097,0.065,0.22,0.079,0.328,0.125c0.335,0.146,0.458,0.08,0.553-0.32
		c0.067-0.288,0.129-0.563,0.47-0.57c0.047-0.001,0.097-0.104,0.137-0.167c0.074-0.116,0.124-0.255,0.212-0.352
		c0.205-0.228,0.411-0.171,0.521,0.126c0.139,0.377,0.277,0.753,0.433,1.175c0.366-0.168,0.271-0.695,0.516-1.029
		c0.121,0.104,0.242,0.213,0.367,0.315c0.205,0.168,0.401,0.354,0.621,0.494c0.259,0.164,0.496,0.086,0.666-0.191
		c0.133-0.215,0.237-0.455,0.382-0.658c0.355-0.495,0.686-0.552,1.17-0.232c0.453,0.3,0.477,0.281,0.905-0.054
		c0.212-0.165,0.462-0.295,0.71-0.37c0.419-0.127,0.707-0.357,0.785-0.864c0.073-0.467,0.336-0.729,0.75-0.798
		c0.623-0.102,1.242-0.214,1.738-0.711c0.037-0.038,0.167-0.014,0.22,0.032c0.327,0.283,0.662,0.56,0.957,0.88
		c0.253,0.273,0.516,0.47,0.863,0.563c0.229,0.062,0.443,0.219,0.641,0.371c0.212,0.162,0.416,0.233,0.656,0.113
		c0.398-0.201,0.791-0.159,1.161,0.075c0.407,0.258,0.821,0.309,1.249,0.099c0.479-0.235,0.787,0.188,1.158,0.366
		c0.022,0.01,0.036,0.056,0.047,0.089c0.103,0.299-0.281,1.098-0.56,1.188c-0.102,0.032-0.193,0.098-0.348,0.179
		c0.117,0.072,0.165,0.124,0.218,0.129c0.375,0.05,0.493,0.157,0.49,0.572c-0.001,0.392-0.046,0.785-0.089,1.174
		c-0.046,0.411-0.006,0.449,0.343,0.488C41.5,9.783,41.747,9.9,41.997,9.973c0.17,0.048,0.346,0.069,0.509,0.131
		c0.105,0.041,0.197,0.13,0.291,0.205c0.191,0.15,0.37,0.415,0.572,0.437c0.393,0.042,0.658,0.214,0.841,0.627
		c0.192-0.271,0.392-0.243,0.632-0.134c0.143,0.064,0.343,0.062,0.486,0.001c0.82-0.34,1.057-0.313,1.81,0.293
		c-0.164,0.176-0.314,0.305-0.577,0.261c-0.12-0.021-0.291,0.131-0.391,0.254c-0.112,0.136-0.155,0.338-0.253,0.494
		c-0.201,0.32-0.492,0.386-0.835,0.294c-0.082,0.397-0.322,0.422-0.614,0.382c-0.51-0.069-0.607,0.042-0.603,0.613
		c0.008,0.566-0.01,0.586-0.488,0.69c-0.093,0.02-0.18,0.069-0.267,0.116c-0.228,0.123-0.419,0.096-0.605-0.111
		c-0.274-0.303-0.764-0.148-0.883,0.263c-0.074,0.257-0.34,0.296-0.527,0.071c-0.094-0.11-0.166-0.241-0.249-0.362
		c-0.036,0.011-0.072,0.021-0.108,0.033c0.043,0.25,0.055,0.513,0.137,0.747c0.118,0.338-0.008,0.481-0.273,0.517
		c-0.368,0.049-0.492,0.27-0.505,0.672c-0.025,0.896-0.425,1.312-1.209,1.341c-0.088,0.003-0.241,0.122-0.247,0.2
		c-0.03,0.378-0.308,0.361-0.513,0.406c-0.225,0.05-0.465,0.025-0.698,0.018c-0.328-0.011-0.523,0.165-0.671,0.49
		c-0.125,0.28-0.317,0.521-0.462,0.792c-0.089,0.166-0.152,0.35-0.208,0.533c-0.053,0.17-0.078,0.352-0.126,0.577
		c0.213,0.363,0.208,0.357-0.127,0.684c-0.098,0.096-0.148,0.251-0.233,0.37c-0.059,0.085-0.125,0.182-0.21,0.224
		c-0.325,0.164-0.378,0.383-0.201,0.737c0.119,0.242,0.193,0.513,0.289,0.77c0.066,0.174,0.117,0.359,0.203,0.521
		c0.195,0.369,0.406,0.729,0.628,1.121c0.196-0.126,0.362,0.039,0.532,0.236c0.443,0.509,1.027,0.73,1.604,0.971
		c0.134,0.055,0.287,0.208,0.327,0.352c0.088,0.331,0.192,0.667,0.062,1.041c-0.05,0.143,0.027,0.386,0.111,0.536
		c0.381,0.669,0.812,1.283,1.482,1.627c0.434,0.223,0.856,0.476,1.273,0.735c0.169,0.104,0.372,0.216,0.303,0.519
		c-0.012,0.041,0.029,0.113,0.064,0.147c0.354,0.341,0.683,0.727,1.072,1.001c0.665,0.465,1.369,0.859,2.056,1.287
		c0.072,0.045,0.189,0.107,0.194,0.17c0.026,0.435,0.297,0.324,0.542,0.372c0.283,0.054,0.56,0.206,0.813,0.368
		c0.078,0.05,0.059,0.28,0.1,0.423c0.036,0.128,0.063,0.332,0.14,0.365c0.6,0.266,0.885,0.886,1.273,1.387
		c0.424,0.545,0.836,1.102,1.26,1.646c0.049,0.066,0.15,0.137,0.211,0.122c0.21-0.056,0.415-0.033,0.486,0.197
		c0.085,0.271,0.102,0.567,0.132,0.854c0.021,0.187-0.027,0.39,0.023,0.56c0.091,0.317,0.217,0.625,0.357,0.918
		c0.166,0.345,0.233,0.695,0.232,1.094c0,0.293,0.127,0.594,0.228,0.878c0.12,0.354,0.271,0.694,0.422,1.077
		c-0.122,0.019-0.189,0.028-0.345,0.049c0.097,0.134,0.151,0.245,0.235,0.313c0.197,0.165,0.293,0.333,0.139,0.601
		c-0.044,0.078-0.051,0.197-0.05,0.297c0.002,0.304-0.025,0.616,0.039,0.902c0.054,0.236,0.222,0.438,0.351,0.677
		c-0.055,0.058-0.165,0.123-0.199,0.222c-0.044,0.122-0.054,0.28-0.024,0.407c0.052,0.223,0.146,0.433,0.222,0.653
		s0.132,0.451,0.227,0.661c0.16,0.349,0.12,0.641-0.129,0.905c-0.047,0.051-0.092,0.101-0.14,0.148
		c-0.55,0.578-0.575,0.744-0.22,1.478c0.02,0.04,0.033,0.087,0.09,0.233c-0.277-0.12-0.48-0.21-0.689-0.301
		c-0.006,0.008-0.03,0.034-0.026,0.042c0.198,0.398,0.197,0.823,0.183,1.27c-0.011,0.286-0.021,0.495-0.254,0.667
		c-0.296,0.22-0.287,0.338,0.01,0.549c0.2,0.142,0.244,0.337,0.137,0.552c-0.111,0.229-0.253,0.441-0.403,0.64
		c-0.037,0.046-0.187,0.04-0.249-0.006c-0.072-0.052-0.105-0.171-0.154-0.261c-0.034,0.021-0.065,0.042-0.096,0.062
		c-0.011,0.171-0.016,0.342-0.034,0.51c-0.054,0.489-0.247,0.711-0.68,0.729c-0.283,0.011-0.503,0.11-0.705,0.339
		c-0.103,0.117-0.293,0.148-0.448,0.187c-0.171,0.044-0.363,0.017-0.525,0.084c-0.364,0.151-0.716,0.343-1.072,0.519
		c-0.039,0.02-0.101,0.025-0.114,0.056c-0.178,0.419-0.459,0.267-0.724,0.165c-0.255-0.095-0.458-0.02-0.548,0.258
		c-0.194,0.598-0.57,0.753-1.11,0.79c-0.439,0.029-0.868,0.277-1.295,0.447c-0.52,0.203-1.022,0.472-1.552,0.624
		c-0.643,0.185-1.203-0.105-1.723-0.569c-0.187,0.103-0.404,0.318-0.598,0.294c-0.145-0.018-0.26-0.345-0.421-0.583
		c0.011,0.142,0.01,0.273,0.031,0.401c0.024,0.128,0.088,0.246,0.107,0.373c0.057,0.359-0.066,0.539-0.389,0.512
		c-0.358-0.032-0.713-0.124-1.069-0.177c-0.378-0.058-0.758-0.098-1.135-0.144L36.266,59.712z"/>
	<path fill-rule="evenodd" clip-rule="evenodd" fill="#026D69" d="M36.26,59.708c0.674,0.194,1.347,0.385,2.021,0.579
		c0.102,0.03,0.211,0.052,0.301,0.11c0.2,0.128,0.202,0.355-0.013,0.459c-0.29,0.141-0.288,0.426-0.285,0.689
		c0.003,0.291-0.139,0.46-0.382,0.366c-0.107-0.042-0.212-0.112-0.303-0.189c-0.567-0.461-1.128-0.934-1.693-1.394
		c-0.177-0.145-0.37-0.266-0.551-0.395c0.364-0.145,1.054,0.09,1.356,0.45c0.187,0.223,0.388,0.431,0.62,0.601
		c-0.237-0.447-0.548-0.805-0.956-1.045c-0.074-0.043-0.255-0.045-0.107-0.229C36.266,59.712,36.26,59.708,36.26,59.708z"/>
	<path fill-rule="evenodd" clip-rule="evenodd" fill="#026D69" d="M41.98,15.691c-0.111-0.129-0.32-0.261-0.318-0.387
		c0.006-0.319,0.294-0.338,0.499-0.354c0.097-0.006,0.258,0.145,0.297,0.263C42.515,15.39,42.252,15.627,41.98,15.691z"/>
	<path fill-rule="evenodd" clip-rule="evenodd" fill="#026D69" d="M44.908,13.738c-0.265,0.144-0.531,0.289-0.798,0.433
		c-0.036-0.03-0.073-0.061-0.109-0.09c0.071-0.199,0.106-0.523,0.222-0.566c0.202-0.076,0.454,0.027,0.685,0.055
		C44.907,13.625,44.908,13.682,44.908,13.738z"/>
</g>
</svg>
