<?xml version="1.0" encoding="utf-8"?>
<!-- Generator: Adobe Illustrator 16.0.0, SVG Export Plug-In . SVG Version: 6.00 Build 0)  -->
<!DOCTYPE svg PUBLIC "-//W3C//DTD SVG 1.1//EN" "http://www.w3.org/Graphics/SVG/1.1/DTD/svg11.dtd">
<svg version="1.1" id="Layer_1" xmlns="http://www.w3.org/2000/svg" xmlns:xlink="http://www.w3.org/1999/xlink" x="0px" y="0px"
	 width="57.393px" height="52.596px" viewBox="-1998.09 588.963 57.393 52.596"
	 enable-background="new -1998.09 588.963 57.393 52.596" xml:space="preserve">
<g>
	<path fill="#A3AF35" d="M-1978.528,616.882c-5.414-3.294-10.317-1.729-10.367-1.713l-0.163-0.857
		c0.21-0.07,5.186-1.656,10.813,1.769L-1978.528,616.882z"/>
	<path fill="#A3AF35" d="M-1978.528,621.28c-5.414-3.293-10.317-1.729-10.367-1.713l-0.163-0.857
		c0.21-0.069,5.186-1.655,10.813,1.769L-1978.528,621.28z"/>
	<path fill="#A3AF35" d="M-1978.528,625.679c-5.414-3.292-10.317-1.73-10.367-1.713l-0.163-0.856
		c0.21-0.069,5.186-1.655,10.813,1.769L-1978.528,625.679z"/>
	<path fill="#A3AF35" d="M-1978.528,630.079c-5.414-3.295-10.317-1.73-10.367-1.715l-0.163-0.855
		c0.21-0.07,5.186-1.656,10.813,1.768L-1978.528,630.079z"/>
	<path fill="#A3AF35" d="M-1978.528,634.476c-5.414-3.293-10.317-1.729-10.367-1.713l-0.163-0.855
		c0.21-0.07,5.186-1.656,10.813,1.768L-1978.528,634.476z"/>
	<path fill="#00A9A4" d="M-1998.09,612.224l0.135,27.615c0,0,6.492-4.633,19.458,0.541c1.179,1.639,4.25,1.543,4.958-0.125
		c1.854-1.322,14.78-4.078,20.084-0.248l-0.078-22.137c0,0-0.73,0.553-2.057,0.699c0,18.822,0,18.822,0,18.822
		s-8.832-3.537-20.183,1.988c-3.613-1.436-13.376-4.641-20.153-1.914c0.037-0.996,0.037-27.737,0.037-27.737
		s12.229-3.758,19.283,3.094c-0.019,16.134-0.019,16.134-0.019,16.134l0.852-0.871l-0.173,11.076c0,0,0.295,0.393,0.5-0.057
		c0.005-0.283,0-10.939,0-10.939l0.718,0.885l-0.092-16.41c0,0,4.863-4.396,13.206-3.939c0.663-1.255,0.663-1.255,0.663-1.255
		s-8.095-1.216-14.822,4.477c-0.871-1.05-9.655-7.682-21.259-3.04c0.055,2.817,0.055,2.817,0.055,2.817
		S-1997.63,611.561-1998.09,612.224z"/>
	<path fill="#A3AF35" d="M-1971.598,615.323l-0.319-0.822c0.154-0.062,3.798-1.474,8.438-0.659l-0.15,0.87
		C-1968.031,613.941-1971.564,615.309-1971.598,615.323z"/>
	<path fill="#A3AF35" d="M-1971.682,619.715l-0.262-0.822c0.13-0.063,3.206-1.548,6.78-0.563l-0.153,0.862
		C-1968.67,618.27-1971.653,619.7-1971.682,619.715z"/>
	<path fill="#A3AF35" d="M-1971.146,623.587l-0.189-0.644c0.094-0.05,2.342-1.21,4.955-0.439l-0.112,0.675
		C-1968.944,622.456-1971.123,623.574-1971.146,623.587z"/>
	<g>
		<g>
			<g>
				<g>
					<g>
						<path fill="#848484" d="M-1948.987,596.256c-5.378,4.751-8.012,8.491-8.38,9.19c-0.369,0.7,0.46,1.493,0.46,1.493
							s0,0-1.171,0.073c-5.262,5.931-0.829,8.822-0.829,8.822l-0.43,1.087l-1.179-0.812l-0.331,0.589l1.031,0.884l-5.047,6.746
							c1.731,0.021,2.267-1.221,2.267-1.221l3.666-5.009l0.055,0.073l0.718,0.571l0.534-0.554l-0.903-0.719l0.755-1.067
							c0,0,0.683,0.368,3.205,0.165c2.524-0.203,4.328-2.209,4.55-2.542c0.222-0.331-0.111-1.271-0.111-1.271s0.479,0.516,1.216,0
							c2.762-3.534,8.214-23.794,8.214-23.794S-1943.609,591.505-1948.987,596.256z M-1949.586,611.2
							c-1.742-0.563-1.742-0.563-1.742-0.563l0.256,2.203c0,0-2.02,2.9-5.246,1.876c7.229-11.319,9.937-15.794,9.937-15.794
							l-11.229,15.094c0,0-2.873-1.586,0.04-6.145c3.067-0.257,3.067-0.257,3.067-0.257s-1.64-1.844-1.331-2.279
							c0.307-0.436,9.219-9.295,9.219-9.295l0.256,1.638l1.742-0.256C-1944.619,597.423-1948.87,611.15-1949.586,611.2z
							 M-1945.847,596.963v-1.485l2.459-2.306l-0.975,3.791H-1945.847z"/>
					</g>
					<path fill="#848484" d="M-1946.653,599.448l-18.536,24.403c0,0,0.911,1.246,2.585,0c5.876-8.294,5.876-8.294,5.876-8.294
						l0.213-1.153"/>
				</g>
			</g>
			<polyline fill="#848484" points="-1961.297,616.932 -1960.498,616.131 -1957.625,618.192 -1958.374,619.313 -1961.432,617.125 
							"/>
		</g>
	</g>
	<polygon fill="#A3AF35" points="-1992.839,617.799 -1994.624,615.237 -1993.802,614.666 -1992.855,616.027 -1991.206,613.573 
		-1990.375,614.131 	"/>
	<polygon fill="#A3AF35" points="-1993.189,623.749 -1994.972,621.189 -1994.153,620.616 -1993.204,621.979 -1991.554,619.524 
		-1990.724,620.082 	"/>
	<polygon fill="#A3AF35" points="-1993.189,628.73 -1994.972,626.169 -1994.153,625.597 -1993.204,626.958 -1991.554,624.503 
		-1990.724,625.062 	"/>
	<polygon fill="#A3AF35" points="-1993.189,633.896 -1994.972,631.335 -1994.153,630.763 -1993.204,632.124 -1991.554,629.671 
		-1990.724,630.228 	"/>
</g>
</svg>
