<?xml version="1.0" encoding="utf-8"?>
<!-- Generator: Adobe Illustrator 16.0.0, SVG Export Plug-In . SVG Version: 6.00 Build 0)  -->
<!DOCTYPE svg PUBLIC "-//W3C//DTD SVG 1.1//EN" "http://www.w3.org/Graphics/SVG/1.1/DTD/svg11.dtd">
<svg version="1.1" id="Layer_1" xmlns="http://www.w3.org/2000/svg" xmlns:xlink="http://www.w3.org/1999/xlink" x="0px" y="0px"
	 width="47.845px" height="45.18px" viewBox="-1702.559 599.154 47.845 45.18"
	 enable-background="new -1702.559 599.154 47.845 45.18" xml:space="preserve">
<g>
	<polygon fill="#A3AF35" points="-1682.116,627.72 -1683.105,627.571 -1678.912,599.74 -1668.271,625.865 -1669.197,626.241 
		-1678.467,603.488 	"/>
	<polygon fill="#A3AF35" points="-1689.297,626.901 -1690.219,626.513 -1681.311,605.257 -1696.666,624.278 -1697.445,623.65 
		-1677.669,599.154 	"/>
	<polygon fill="#A3AF35" points="-1676.169,626.891 -1679.375,599.262 -1661.139,622.98 -1661.932,623.588 -1677.965,602.737 
		-1675.176,626.777 	"/>
	<path fill="#848484" d="M-1677.784,637.228l13.33-8.457c-0.629,0.131-1.289,0.258-1.994,0.369l0.002,0.002l-0.108,0.018
		l-0.064,0.01h-0.002c-0.707,0.111-1.452,0.209-2.217,0.297l-9.28,6.967c-0.519-0.473-1.481-0.588-2.183-0.252l-8.946-6.715
		c-0.765-0.088-1.509-0.186-2.217-0.297l0,0l-0.066-0.01l-0.108-0.018l0.002-0.002c-0.846-0.135-1.646-0.285-2.379-0.447
		l13.015,8.543c0.028,0.221,0.142,0.424,0.319,0.592c-1.063,1.014-1.217,2.389-0.388,3.51c0.386,0.521,1.03,0.924,1.142,1.535
		c0.095,0.523-0.141,1.08-0.659,1.461c0.989-0.066,1.985-0.086,2.979-0.059c0.16-1.105-0.432-2.029-1.313-2.908
		c-0.976-0.971-1.216-1.98-1.026-3.154c0.193,0.051,0.389,0.074,0.594,0.07c-0.102,1.035,0.256,2.143,1.35,2.879
		c0.484,0.326,1.083,0.543,1.54,0.895c0.504,0.391,0.868,0.871,1.045,1.385c0.479-0.5,1.54-0.439,2.019-0.951
		c0.487-0.521-0.572-1.375-1.109-1.688c-0.775-0.449-1.801-0.604-2.588-1.057c-0.717-0.414-1.279-0.957-1.635-1.561
		C-1678.206,638.015-1677.833,637.656-1677.784,637.228z"/>
	<path fill="#00A9A4" d="M-1677.275,628.365C-1677.277,628.365-1677.277,628.365-1677.275,628.365c-0.806,0-1.609-0.008-2.41-0.018
		c-4.648-0.052-8.526-0.293-12.342-1.304c-7.121-1.887-9.918-5.979-10.033-6.153l-0.498-0.744l23.447-19.643h0.838l23.56,19.735
		l-0.62,0.764c-0.143,0.177-3.59,4.347-10.996,6.271C-1670.018,628.233-1673.77,628.365-1677.275,628.365z M-1699.825,620.464
		c1.06,1.138,3.655,3.414,8.31,4.646c3.615,0.958,7.353,1.188,11.852,1.236c0.793,0.01,1.59,0.018,2.389,0.018
		c3.373,0,6.973-0.125,10.442-1.026c4.957-1.288,7.991-3.692,9.258-4.887l-21.116-17.691L-1699.825,620.464z"/>
</g>
</svg>
