<?xml version="1.0" encoding="utf-8"?>
<!-- Generator: Adobe Illustrator 16.0.0, SVG Export Plug-In . SVG Version: 6.00 Build 0)  -->
<!DOCTYPE svg PUBLIC "-//W3C//DTD SVG 1.1//EN" "http://www.w3.org/Graphics/SVG/1.1/DTD/svg11.dtd">
<svg version="1.1" id="Layer_1" xmlns="http://www.w3.org/2000/svg" xmlns:xlink="http://www.w3.org/1999/xlink" x="0px" y="0px"
	 width="45.43px" height="46.198px" viewBox="-1405.1 599.934 45.43 46.198" enable-background="new -1405.1 599.934 45.43 46.198"
	 xml:space="preserve">
<g>
	<g>
		<path fill="#A3AF35" d="M-1382.348,626.543c0-1.436-0.006-2.869,0.003-4.303c0.008-0.892,0.244-1.156,0.979-1.156
			c0.733,0,0.983,0.276,1.007,1.141c0.01,0.41-0.004,0.82,0.003,1.229c0.01,0.709,0.084,0.74,0.761,0.547
			c1.425-0.404,2.768-0.197,3.706,0.988c0.448,0.564,0.706,1.387,0.773,2.121c0.127,1.283,0.088,2.594,0.012,3.886
			c-0.021,0.348-0.37,0.846-0.685,0.955c-0.313,0.113-0.807-0.104-1.146-0.305c-0.164-0.096-0.206-0.482-0.21-0.74
			c-0.023-1.159-0.008-2.321-0.015-3.481c-0.005-0.914-0.325-1.379-0.992-1.465c-1.073-0.145-1.856,0.244-2.008,1.148
			c-0.154,0.934-0.151,1.896-0.202,2.848c-0.019,0.361,0.01,0.728-0.005,1.091c-0.03,0.695-0.308,0.971-0.95,0.977
			c-0.718,0.01-1.01-0.242-1.019-0.973c-0.021-1.501-0.008-3.003-0.008-4.507C-1382.345,626.543-1382.345,626.543-1382.348,626.543z
			"/>
		<path fill="#A3AF35" d="M-1394.917,629.84c1.205,0,2.18-0.008,3.157,0.002c0.792,0.008,1.07,0.248,1.076,0.897
			c0.005,0.66-0.32,0.959-1.108,0.965c-1.615,0.008-3.231-0.006-4.849,0.006c-0.475,0.006-0.926-0.012-1.134-0.533
			c-0.218-0.545-0.071-1.011,0.319-1.437c1.066-1.178,2.128-2.359,3.184-3.549c0.271-0.305,0.543-0.619,0.752-0.969
			c0.285-0.467,0.56-0.98,0.172-1.52c-0.313-0.438-1.242-0.596-1.831-0.318c-0.365,0.172-0.713,0.389-1.04,0.621
			c-0.528,0.379-1.047,0.365-1.393-0.072c-0.343-0.436-0.28-0.989,0.215-1.375c1.199-0.936,2.488-1.434,4.051-0.968
			c2.079,0.62,2.59,2.669,1.521,4.36c-0.695,1.102-1.646,2.043-2.478,3.061C-1394.476,629.231-1394.638,629.463-1394.917,629.84z"/>
		<path fill="#A3AF35" d="M-1388.569,627.199c0.538,0,0.907,0.057,1.243-0.021c0.188-0.043,0.429-0.295,0.458-0.48
			c0.067-0.447,0.017-0.91,0.03-1.365c0.019-0.598,0.396-0.861,0.933-0.859c0.518,0.004,0.844,0.311,0.886,0.844
			c0.025,0.271,0.018,0.549,0.007,0.82c-0.019,0.572-0.121,1.115,0.772,1.162c0.479,0.025,0.614,0.549,0.567,1.021
			c-0.041,0.426-0.204,0.754-0.708,0.73c-0.526-0.027-0.662,0.266-0.634,0.73c0.02,0.316,0.012,0.637,0,0.954
			c-0.023,0.57-0.4,0.957-0.932,0.969c-0.56,0.012-0.873-0.32-0.9-0.949c-0.067-1.677-0.067-1.677-1.725-1.677
			c-0.5,0-1.003,0.012-1.502-0.012c-0.883-0.043-1.299-0.693-0.874-1.457c1.061-1.898,2.154-3.781,3.254-5.658
			c0.309-0.531,0.965-0.707,1.407-0.439c0.46,0.273,0.53,0.751,0.177,1.375C-1386.888,624.264-1387.677,625.637-1388.569,627.199z"
			/>
		<path fill="#00A9A4" d="M-1371.76,646.132l-8.131-5.682c-11.232,1.816-18.961-2.553-22.467-7.279
			c-3.033-4.089-3.586-9.044-1.479-13.257c4.988-9.982,16.379-10.081,16.545-10.081h0.001l-0.004,1.5l0,0
			c-0.12,0-10.625,0.098-15.201,9.251c-1.849,3.695-1.348,8.066,1.342,11.69c3.273,4.414,10.595,8.475,21.315,6.645l0.304-0.051
			l6.786,4.742l1.971-9.117l0.184-0.162c1.092-0.967,2.865-2.922,2.979-4.048l1.492,0.148c-0.187,1.856-2.557,4.175-3.291,4.854
			L-1371.76,646.132z"/>
	</g>
	<path fill="#848484" d="M-1365.578,627.35c-2.459,0-5.278-1.328-8.379-3.947c-5.919-5.251-12.073-11.292-12.968-16.399
		c-0.422-2.399,0.404-3.992,1.172-4.906c1.256-1.494,3.161-2.163,4.494-2.163c0.473,0,0.88,0.081,1.209,0.241l0.125,0.072
		c1.208,0.819,4.705,4.092,5.063,5.086l0.059,0.146c0.445,1.061,0.673,2.432-0.826,4.618c1.417,1.735,4.21,4.943,5.996,6.141
		c0.244-0.175,0.56-0.447,0.686-0.578l0.006,0.006c0.358-0.371,1.167-0.781,2.161-0.781c0.774,0,1.957,0.257,3.193,1.48
		c0.355,0.353,0.731,0.685,1.1,1.008c1.782,1.576,3.999,3.539,2.073,6.9C-1361.553,626.258-1363.386,627.35-1365.578,627.35z
		 M-1381.258,601.934c-0.867,0-2.163,0.498-2.963,1.45c-0.718,0.855-0.965,1.957-0.732,3.275
		c0.793,4.526,6.993,10.519,12.306,15.231c4.715,3.982,8.679,4.561,10.498,1.389c1.071-1.871,0.264-2.703-1.663-4.408
		c-0.395-0.349-0.798-0.707-1.181-1.084c-0.605-0.6-1.207-0.902-1.787-0.902c-0.42,0-0.712,0.164-0.776,0.203
		c-0.389,0.396-1.356,1.272-2.141,1.272l0,0c-0.297,0-0.57-0.104-0.779-0.29c-2.723-1.667-7.015-7.094-7.199-7.327l-0.485-0.619
		l0.484-0.617c1.562-1.989,1.229-2.781,1.03-3.254c-0.038-0.09-0.072-0.172-0.099-0.248c-0.279-0.483-2.934-3.135-4.212-4.043
		C-1381.011,601.95-1381.11,601.934-1381.258,601.934z"/>
</g>
</svg>
